<mxfile host="app.diagrams.net" modified="2022-04-29T04:25:08.602Z" agent="5.0 (Windows NT 10.0; Win64; x64) AppleWebKit/537.36 (KHTML, like Gecko) Chrome/101.0.4951.41 Safari/537.36" etag="cynwu06ePLgZVlUyIkzJ" version="17.4.6" type="github">
  <diagram id="o8UFwl47REkMgcq41JNA" name="Page-1">
    <mxGraphModel dx="1335" dy="686" grid="1" gridSize="10" guides="1" tooltips="1" connect="1" arrows="1" fold="1" page="1" pageScale="1" pageWidth="827" pageHeight="1169" math="0" shadow="0">
      <root>
        <mxCell id="0" />
        <mxCell id="1" parent="0" />
        <mxCell id="roazqDiCKsJRcGomv7hK-18" style="edgeStyle=orthogonalEdgeStyle;rounded=0;orthogonalLoop=1;jettySize=auto;html=1;exitX=0;exitY=0;exitDx=0;exitDy=0;entryX=1;entryY=0.5;entryDx=0;entryDy=0;fontSize=12;endArrow=none;endFill=0;" edge="1" parent="1" source="roazqDiCKsJRcGomv7hK-1" target="roazqDiCKsJRcGomv7hK-9">
          <mxGeometry relative="1" as="geometry" />
        </mxCell>
        <mxCell id="roazqDiCKsJRcGomv7hK-19" style="edgeStyle=orthogonalEdgeStyle;rounded=0;orthogonalLoop=1;jettySize=auto;html=1;exitX=0.5;exitY=0;exitDx=0;exitDy=0;entryX=0.5;entryY=1;entryDx=0;entryDy=0;fontSize=12;endArrow=none;endFill=0;" edge="1" parent="1" source="roazqDiCKsJRcGomv7hK-1" target="roazqDiCKsJRcGomv7hK-8">
          <mxGeometry relative="1" as="geometry" />
        </mxCell>
        <mxCell id="roazqDiCKsJRcGomv7hK-20" style="edgeStyle=orthogonalEdgeStyle;rounded=0;orthogonalLoop=1;jettySize=auto;html=1;exitX=0.75;exitY=0;exitDx=0;exitDy=0;entryX=0;entryY=0.5;entryDx=0;entryDy=0;fontSize=12;endArrow=none;endFill=0;" edge="1" parent="1" source="roazqDiCKsJRcGomv7hK-1" target="roazqDiCKsJRcGomv7hK-10">
          <mxGeometry relative="1" as="geometry" />
        </mxCell>
        <mxCell id="roazqDiCKsJRcGomv7hK-22" style="edgeStyle=orthogonalEdgeStyle;rounded=0;orthogonalLoop=1;jettySize=auto;html=1;exitX=1;exitY=0.25;exitDx=0;exitDy=0;entryX=0.5;entryY=0;entryDx=0;entryDy=0;fontSize=12;endArrow=none;endFill=0;" edge="1" parent="1" source="roazqDiCKsJRcGomv7hK-1" target="roazqDiCKsJRcGomv7hK-12">
          <mxGeometry relative="1" as="geometry" />
        </mxCell>
        <mxCell id="roazqDiCKsJRcGomv7hK-23" style="edgeStyle=orthogonalEdgeStyle;rounded=0;orthogonalLoop=1;jettySize=auto;html=1;exitX=0.5;exitY=1;exitDx=0;exitDy=0;entryX=0.5;entryY=0;entryDx=0;entryDy=0;fontSize=12;endArrow=none;endFill=0;" edge="1" parent="1" source="roazqDiCKsJRcGomv7hK-1" target="roazqDiCKsJRcGomv7hK-14">
          <mxGeometry relative="1" as="geometry" />
        </mxCell>
        <mxCell id="roazqDiCKsJRcGomv7hK-24" style="edgeStyle=orthogonalEdgeStyle;rounded=0;orthogonalLoop=1;jettySize=auto;html=1;exitX=1;exitY=1;exitDx=0;exitDy=0;entryX=0;entryY=0.5;entryDx=0;entryDy=0;fontSize=12;endArrow=none;endFill=0;" edge="1" parent="1" source="roazqDiCKsJRcGomv7hK-1" target="roazqDiCKsJRcGomv7hK-15">
          <mxGeometry relative="1" as="geometry" />
        </mxCell>
        <mxCell id="roazqDiCKsJRcGomv7hK-27" style="edgeStyle=orthogonalEdgeStyle;rounded=0;orthogonalLoop=1;jettySize=auto;html=1;entryX=0.5;entryY=0;entryDx=0;entryDy=0;fontSize=12;endArrow=none;endFill=0;" edge="1" parent="1" source="roazqDiCKsJRcGomv7hK-1" target="roazqDiCKsJRcGomv7hK-13">
          <mxGeometry relative="1" as="geometry" />
        </mxCell>
        <mxCell id="roazqDiCKsJRcGomv7hK-1" value="Posts" style="whiteSpace=wrap;html=1;align=center;fillColor=#f8cecc;strokeColor=#b85450;" vertex="1" parent="1">
          <mxGeometry x="144" y="280" width="120" height="40" as="geometry" />
        </mxCell>
        <mxCell id="roazqDiCKsJRcGomv7hK-38" style="edgeStyle=orthogonalEdgeStyle;rounded=0;orthogonalLoop=1;jettySize=auto;html=1;entryX=1;entryY=0.5;entryDx=0;entryDy=0;fontSize=12;endArrow=none;endFill=0;" edge="1" parent="1" source="roazqDiCKsJRcGomv7hK-2" target="roazqDiCKsJRcGomv7hK-30">
          <mxGeometry relative="1" as="geometry" />
        </mxCell>
        <mxCell id="roazqDiCKsJRcGomv7hK-39" style="edgeStyle=orthogonalEdgeStyle;rounded=0;orthogonalLoop=1;jettySize=auto;html=1;exitX=0.25;exitY=0;exitDx=0;exitDy=0;entryX=0.987;entryY=0.3;entryDx=0;entryDy=0;entryPerimeter=0;fontSize=12;endArrow=none;endFill=0;" edge="1" parent="1" source="roazqDiCKsJRcGomv7hK-2" target="roazqDiCKsJRcGomv7hK-28">
          <mxGeometry relative="1" as="geometry" />
        </mxCell>
        <mxCell id="roazqDiCKsJRcGomv7hK-40" style="edgeStyle=orthogonalEdgeStyle;rounded=0;orthogonalLoop=1;jettySize=auto;html=1;exitX=0.25;exitY=1;exitDx=0;exitDy=0;entryX=1;entryY=0.5;entryDx=0;entryDy=0;fontSize=12;endArrow=none;endFill=0;" edge="1" parent="1" source="roazqDiCKsJRcGomv7hK-2" target="roazqDiCKsJRcGomv7hK-31">
          <mxGeometry relative="1" as="geometry" />
        </mxCell>
        <mxCell id="roazqDiCKsJRcGomv7hK-41" style="edgeStyle=orthogonalEdgeStyle;rounded=0;orthogonalLoop=1;jettySize=auto;html=1;exitX=0.75;exitY=1;exitDx=0;exitDy=0;entryX=0;entryY=0.5;entryDx=0;entryDy=0;fontSize=12;endArrow=none;endFill=0;" edge="1" parent="1" source="roazqDiCKsJRcGomv7hK-2" target="roazqDiCKsJRcGomv7hK-32">
          <mxGeometry relative="1" as="geometry" />
        </mxCell>
        <mxCell id="roazqDiCKsJRcGomv7hK-43" style="edgeStyle=orthogonalEdgeStyle;rounded=0;orthogonalLoop=1;jettySize=auto;html=1;entryX=0;entryY=0.5;entryDx=0;entryDy=0;fontSize=12;endArrow=none;endFill=0;" edge="1" parent="1" source="roazqDiCKsJRcGomv7hK-2" target="roazqDiCKsJRcGomv7hK-36">
          <mxGeometry relative="1" as="geometry" />
        </mxCell>
        <mxCell id="roazqDiCKsJRcGomv7hK-44" style="edgeStyle=orthogonalEdgeStyle;rounded=0;orthogonalLoop=1;jettySize=auto;html=1;exitX=1;exitY=0;exitDx=0;exitDy=0;entryX=0;entryY=0.5;entryDx=0;entryDy=0;fontSize=12;endArrow=none;endFill=0;" edge="1" parent="1" source="roazqDiCKsJRcGomv7hK-2" target="roazqDiCKsJRcGomv7hK-29">
          <mxGeometry relative="1" as="geometry" />
        </mxCell>
        <mxCell id="roazqDiCKsJRcGomv7hK-2" value="Usuarios" style="whiteSpace=wrap;html=1;align=center;fillColor=#f8cecc;strokeColor=#b85450;" vertex="1" parent="1">
          <mxGeometry x="543" y="280" width="121" height="40" as="geometry" />
        </mxCell>
        <mxCell id="roazqDiCKsJRcGomv7hK-53" style="edgeStyle=orthogonalEdgeStyle;rounded=0;orthogonalLoop=1;jettySize=auto;html=1;entryX=0;entryY=0.5;entryDx=0;entryDy=0;fontSize=12;endArrow=none;endFill=0;" edge="1" parent="1" source="roazqDiCKsJRcGomv7hK-3" target="roazqDiCKsJRcGomv7hK-48">
          <mxGeometry relative="1" as="geometry">
            <Array as="points">
              <mxPoint x="210" y="545" />
              <mxPoint x="249" y="545" />
              <mxPoint x="249" y="520" />
            </Array>
          </mxGeometry>
        </mxCell>
        <mxCell id="roazqDiCKsJRcGomv7hK-54" style="edgeStyle=orthogonalEdgeStyle;rounded=0;orthogonalLoop=1;jettySize=auto;html=1;exitX=1;exitY=0.5;exitDx=0;exitDy=0;entryX=0;entryY=0.5;entryDx=0;entryDy=0;fontSize=12;endArrow=none;endFill=0;" edge="1" parent="1" source="roazqDiCKsJRcGomv7hK-3" target="roazqDiCKsJRcGomv7hK-49">
          <mxGeometry relative="1" as="geometry" />
        </mxCell>
        <mxCell id="roazqDiCKsJRcGomv7hK-55" style="edgeStyle=orthogonalEdgeStyle;rounded=0;orthogonalLoop=1;jettySize=auto;html=1;entryX=0.5;entryY=0;entryDx=0;entryDy=0;fontSize=12;endArrow=none;endFill=0;" edge="1" parent="1" source="roazqDiCKsJRcGomv7hK-3" target="roazqDiCKsJRcGomv7hK-50">
          <mxGeometry relative="1" as="geometry" />
        </mxCell>
        <mxCell id="roazqDiCKsJRcGomv7hK-56" style="edgeStyle=orthogonalEdgeStyle;rounded=0;orthogonalLoop=1;jettySize=auto;html=1;entryX=1;entryY=0.5;entryDx=0;entryDy=0;fontSize=12;endArrow=none;endFill=0;" edge="1" parent="1" source="roazqDiCKsJRcGomv7hK-3" target="roazqDiCKsJRcGomv7hK-47">
          <mxGeometry relative="1" as="geometry" />
        </mxCell>
        <mxCell id="roazqDiCKsJRcGomv7hK-57" style="edgeStyle=orthogonalEdgeStyle;rounded=0;orthogonalLoop=1;jettySize=auto;html=1;exitX=0.25;exitY=0;exitDx=0;exitDy=0;entryX=1;entryY=0.5;entryDx=0;entryDy=0;fontSize=12;endArrow=none;endFill=0;" edge="1" parent="1" source="roazqDiCKsJRcGomv7hK-3" target="roazqDiCKsJRcGomv7hK-46">
          <mxGeometry relative="1" as="geometry" />
        </mxCell>
        <mxCell id="roazqDiCKsJRcGomv7hK-67" style="edgeStyle=orthogonalEdgeStyle;rounded=0;orthogonalLoop=1;jettySize=auto;html=1;exitX=0.75;exitY=1;exitDx=0;exitDy=0;entryX=0.5;entryY=0;entryDx=0;entryDy=0;fontSize=12;endArrow=none;endFill=0;" edge="1" parent="1" source="roazqDiCKsJRcGomv7hK-3" target="roazqDiCKsJRcGomv7hK-65">
          <mxGeometry relative="1" as="geometry" />
        </mxCell>
        <mxCell id="roazqDiCKsJRcGomv7hK-3" value="Comentarios" style="whiteSpace=wrap;html=1;align=center;fillColor=#f8cecc;strokeColor=#b85450;" vertex="1" parent="1">
          <mxGeometry x="144" y="565" width="120" height="40" as="geometry" />
        </mxCell>
        <mxCell id="roazqDiCKsJRcGomv7hK-5" value="&lt;font style=&quot;font-size: 36px&quot;&gt;&lt;b&gt;Platzi Blog&lt;/b&gt;&lt;/font&gt;" style="text;html=1;strokeColor=none;fillColor=none;align=center;verticalAlign=middle;whiteSpace=wrap;rounded=0;" vertex="1" parent="1">
          <mxGeometry x="303" y="50" width="221" height="30" as="geometry" />
        </mxCell>
        <mxCell id="roazqDiCKsJRcGomv7hK-6" value="&lt;h1 style=&quot;margin: 0.67em 0px ; line-height: 2.25rem ; color: rgb(239 , 243 , 248) ; font-family: &amp;#34;roboto&amp;#34; , sans-serif ; background-color: rgb(18 , 31 , 61)&quot;&gt;&lt;font style=&quot;font-size: 18px&quot;&gt;Entidades de Platzi Blog&lt;/font&gt;&lt;/h1&gt;" style="text;html=1;align=center;verticalAlign=middle;whiteSpace=wrap;rounded=0;fontSize=24;" vertex="1" parent="1">
          <mxGeometry x="308" y="120" width="211" height="40" as="geometry" />
        </mxCell>
        <mxCell id="roazqDiCKsJRcGomv7hK-8" value="&lt;font style=&quot;font-size: 12px&quot;&gt;Titulo&lt;/font&gt;" style="ellipse;whiteSpace=wrap;html=1;align=center;fontSize=18;" vertex="1" parent="1">
          <mxGeometry x="169" y="220" width="70" height="30" as="geometry" />
        </mxCell>
        <mxCell id="roazqDiCKsJRcGomv7hK-9" value="&lt;font style=&quot;font-size: 12px&quot;&gt;ID_post&lt;/font&gt;" style="ellipse;whiteSpace=wrap;html=1;align=center;fontSize=18;" vertex="1" parent="1">
          <mxGeometry x="54" y="220" width="70" height="30" as="geometry" />
        </mxCell>
        <mxCell id="roazqDiCKsJRcGomv7hK-10" value="&lt;font style=&quot;font-size: 12px&quot;&gt;fecha_publicación&lt;/font&gt;" style="ellipse;whiteSpace=wrap;html=1;align=center;fontSize=18;" vertex="1" parent="1">
          <mxGeometry x="264" y="230" width="120" height="40" as="geometry" />
        </mxCell>
        <mxCell id="roazqDiCKsJRcGomv7hK-12" value="&lt;font style=&quot;font-size: 12px&quot;&gt;Contenido&lt;/font&gt;" style="ellipse;whiteSpace=wrap;html=1;align=center;fontSize=18;" vertex="1" parent="1">
          <mxGeometry x="289" y="300" width="70" height="30" as="geometry" />
        </mxCell>
        <mxCell id="roazqDiCKsJRcGomv7hK-14" value="&lt;font style=&quot;font-size: 12px&quot;&gt;Attribute&lt;/font&gt;" style="ellipse;whiteSpace=wrap;html=1;align=center;fontSize=18;" vertex="1" parent="1">
          <mxGeometry x="169" y="355" width="70" height="30" as="geometry" />
        </mxCell>
        <mxCell id="roazqDiCKsJRcGomv7hK-15" value="&lt;font style=&quot;font-size: 12px&quot;&gt;Status&lt;/font&gt;" style="ellipse;whiteSpace=wrap;html=1;align=center;fontSize=18;" vertex="1" parent="1">
          <mxGeometry x="284" y="350" width="70" height="30" as="geometry" />
        </mxCell>
        <mxCell id="roazqDiCKsJRcGomv7hK-26" value="" style="group" vertex="1" connectable="0" parent="1">
          <mxGeometry x="44" y="315" width="90" height="40" as="geometry" />
        </mxCell>
        <mxCell id="roazqDiCKsJRcGomv7hK-13" value="" style="ellipse;whiteSpace=wrap;html=1;align=center;fontSize=18;" vertex="1" parent="roazqDiCKsJRcGomv7hK-26">
          <mxGeometry width="90" height="40" as="geometry" />
        </mxCell>
        <mxCell id="roazqDiCKsJRcGomv7hK-11" value="&lt;font style=&quot;font-size: 12px&quot;&gt;Etiquetas&lt;/font&gt;" style="ellipse;whiteSpace=wrap;html=1;align=center;fontSize=18;" vertex="1" parent="roazqDiCKsJRcGomv7hK-26">
          <mxGeometry x="10" y="5" width="70" height="30" as="geometry" />
        </mxCell>
        <mxCell id="roazqDiCKsJRcGomv7hK-28" value="ID_user" style="ellipse;whiteSpace=wrap;html=1;align=center;fontSize=12;gradientColor=none;" vertex="1" parent="1">
          <mxGeometry x="438" y="230" width="79" height="30" as="geometry" />
        </mxCell>
        <mxCell id="roazqDiCKsJRcGomv7hK-29" value="Email" style="ellipse;whiteSpace=wrap;html=1;align=center;fontSize=12;gradientColor=none;" vertex="1" parent="1">
          <mxGeometry x="694" y="230" width="79" height="30" as="geometry" />
        </mxCell>
        <mxCell id="roazqDiCKsJRcGomv7hK-30" value="password" style="ellipse;whiteSpace=wrap;html=1;align=center;fontSize=12;gradientColor=none;" vertex="1" parent="1">
          <mxGeometry x="438" y="290" width="79" height="30" as="geometry" />
        </mxCell>
        <mxCell id="roazqDiCKsJRcGomv7hK-31" value="Nikname" style="ellipse;whiteSpace=wrap;html=1;align=center;fontSize=12;gradientColor=none;" vertex="1" parent="1">
          <mxGeometry x="438" y="350" width="79" height="30" as="geometry" />
        </mxCell>
        <mxCell id="roazqDiCKsJRcGomv7hK-32" value="Login" style="ellipse;whiteSpace=wrap;html=1;align=center;fontSize=12;gradientColor=none;" vertex="1" parent="1">
          <mxGeometry x="694" y="355" width="79" height="30" as="geometry" />
        </mxCell>
        <mxCell id="roazqDiCKsJRcGomv7hK-35" value="" style="group" vertex="1" connectable="0" parent="1">
          <mxGeometry x="694" y="280" width="90" height="40" as="geometry" />
        </mxCell>
        <mxCell id="roazqDiCKsJRcGomv7hK-36" value="" style="ellipse;whiteSpace=wrap;html=1;align=center;fontSize=18;" vertex="1" parent="roazqDiCKsJRcGomv7hK-35">
          <mxGeometry width="90" height="40" as="geometry" />
        </mxCell>
        <mxCell id="roazqDiCKsJRcGomv7hK-37" value="&lt;font style=&quot;font-size: 12px&quot;&gt;Etiquetas&lt;/font&gt;" style="ellipse;whiteSpace=wrap;html=1;align=center;fontSize=18;" vertex="1" parent="roazqDiCKsJRcGomv7hK-35">
          <mxGeometry x="10" y="5" width="70" height="30" as="geometry" />
        </mxCell>
        <mxCell id="roazqDiCKsJRcGomv7hK-46" value="ID_comentario" style="ellipse;whiteSpace=wrap;html=1;align=center;fontSize=12;fillColor=default;gradientColor=none;" vertex="1" parent="1">
          <mxGeometry x="39" y="500" width="100" height="40" as="geometry" />
        </mxCell>
        <mxCell id="roazqDiCKsJRcGomv7hK-47" value="Contenido" style="ellipse;whiteSpace=wrap;html=1;align=center;fontSize=12;fillColor=default;gradientColor=none;" vertex="1" parent="1">
          <mxGeometry x="10" y="565" width="100" height="40" as="geometry" />
        </mxCell>
        <mxCell id="roazqDiCKsJRcGomv7hK-48" value="id_usuario" style="ellipse;whiteSpace=wrap;html=1;align=center;fontSize=12;fillColor=default;gradientColor=none;" vertex="1" parent="1">
          <mxGeometry x="269" y="500" width="100" height="40" as="geometry" />
        </mxCell>
        <mxCell id="roazqDiCKsJRcGomv7hK-49" value="nikname_usuario" style="ellipse;whiteSpace=wrap;html=1;align=center;fontSize=12;fillColor=default;gradientColor=none;" vertex="1" parent="1">
          <mxGeometry x="314" y="565" width="100" height="40" as="geometry" />
        </mxCell>
        <mxCell id="roazqDiCKsJRcGomv7hK-50" value="Fecha de publicación" style="ellipse;whiteSpace=wrap;html=1;align=center;fontSize=12;fillColor=default;gradientColor=none;" vertex="1" parent="1">
          <mxGeometry x="80" y="670" width="100" height="40" as="geometry" />
        </mxCell>
        <mxCell id="roazqDiCKsJRcGomv7hK-70" style="edgeStyle=orthogonalEdgeStyle;rounded=0;orthogonalLoop=1;jettySize=auto;html=1;entryX=1;entryY=0.5;entryDx=0;entryDy=0;fontSize=12;endArrow=none;endFill=0;" edge="1" parent="1" source="roazqDiCKsJRcGomv7hK-58" target="roazqDiCKsJRcGomv7hK-61">
          <mxGeometry relative="1" as="geometry" />
        </mxCell>
        <mxCell id="roazqDiCKsJRcGomv7hK-71" style="edgeStyle=orthogonalEdgeStyle;rounded=0;orthogonalLoop=1;jettySize=auto;html=1;entryX=0.5;entryY=0;entryDx=0;entryDy=0;fontSize=12;endArrow=none;endFill=0;" edge="1" parent="1" source="roazqDiCKsJRcGomv7hK-58" target="roazqDiCKsJRcGomv7hK-62">
          <mxGeometry relative="1" as="geometry" />
        </mxCell>
        <mxCell id="roazqDiCKsJRcGomv7hK-72" style="edgeStyle=orthogonalEdgeStyle;rounded=0;orthogonalLoop=1;jettySize=auto;html=1;entryX=0;entryY=0.5;entryDx=0;entryDy=0;fontSize=12;endArrow=none;endFill=0;" edge="1" parent="1" source="roazqDiCKsJRcGomv7hK-58" target="roazqDiCKsJRcGomv7hK-68">
          <mxGeometry relative="1" as="geometry">
            <Array as="points">
              <mxPoint x="603" y="625" />
              <mxPoint x="659" y="625" />
              <mxPoint x="659" y="660" />
            </Array>
          </mxGeometry>
        </mxCell>
        <mxCell id="roazqDiCKsJRcGomv7hK-73" style="edgeStyle=orthogonalEdgeStyle;rounded=0;orthogonalLoop=1;jettySize=auto;html=1;entryX=0.5;entryY=1;entryDx=0;entryDy=0;fontSize=12;endArrow=none;endFill=0;" edge="1" parent="1" source="roazqDiCKsJRcGomv7hK-58" target="roazqDiCKsJRcGomv7hK-63">
          <mxGeometry relative="1" as="geometry" />
        </mxCell>
        <mxCell id="roazqDiCKsJRcGomv7hK-58" value="Categorias" style="whiteSpace=wrap;html=1;align=center;fillColor=#f8cecc;strokeColor=#b85450;" vertex="1" parent="1">
          <mxGeometry x="543" y="565" width="120" height="40" as="geometry" />
        </mxCell>
        <mxCell id="roazqDiCKsJRcGomv7hK-61" value="ID_categoria" style="ellipse;whiteSpace=wrap;html=1;align=center;fontSize=12;fillColor=default;gradientColor=none;" vertex="1" parent="1">
          <mxGeometry x="443" y="480" width="100" height="40" as="geometry" />
        </mxCell>
        <mxCell id="roazqDiCKsJRcGomv7hK-62" value="Titulo" style="ellipse;whiteSpace=wrap;html=1;align=center;fontSize=12;fillColor=default;gradientColor=none;" vertex="1" parent="1">
          <mxGeometry x="438" y="640" width="100" height="40" as="geometry" />
        </mxCell>
        <mxCell id="roazqDiCKsJRcGomv7hK-63" value="Descripción" style="ellipse;whiteSpace=wrap;html=1;align=center;fontSize=12;fillColor=default;gradientColor=none;" vertex="1" parent="1">
          <mxGeometry x="689" y="480" width="100" height="40" as="geometry" />
        </mxCell>
        <mxCell id="roazqDiCKsJRcGomv7hK-66" value="" style="group" vertex="1" connectable="0" parent="1">
          <mxGeometry x="229" y="660" width="120" height="60" as="geometry" />
        </mxCell>
        <mxCell id="roazqDiCKsJRcGomv7hK-65" value="" style="ellipse;whiteSpace=wrap;html=1;align=center;fontSize=12;fillColor=default;gradientColor=none;" vertex="1" parent="roazqDiCKsJRcGomv7hK-66">
          <mxGeometry width="120" height="60" as="geometry" />
        </mxCell>
        <mxCell id="roazqDiCKsJRcGomv7hK-59" value="Respuestas" style="ellipse;whiteSpace=wrap;html=1;align=center;fontSize=12;fillColor=default;gradientColor=none;" vertex="1" parent="roazqDiCKsJRcGomv7hK-66">
          <mxGeometry x="10" y="10" width="100" height="40" as="geometry" />
        </mxCell>
        <mxCell id="roazqDiCKsJRcGomv7hK-69" value="" style="group" vertex="1" connectable="0" parent="1">
          <mxGeometry x="679" y="635" width="120" height="50" as="geometry" />
        </mxCell>
        <mxCell id="roazqDiCKsJRcGomv7hK-68" value="" style="ellipse;whiteSpace=wrap;html=1;align=center;fontSize=12;fillColor=default;gradientColor=none;" vertex="1" parent="roazqDiCKsJRcGomv7hK-69">
          <mxGeometry width="120" height="50" as="geometry" />
        </mxCell>
        <mxCell id="roazqDiCKsJRcGomv7hK-64" value="Etiquetas" style="ellipse;whiteSpace=wrap;html=1;align=center;fontSize=12;fillColor=default;gradientColor=none;" vertex="1" parent="roazqDiCKsJRcGomv7hK-69">
          <mxGeometry x="10" y="5" width="100" height="40" as="geometry" />
        </mxCell>
      </root>
    </mxGraphModel>
  </diagram>
</mxfile>
